<svg xmlns="http://www.w3.org/2000/svg" xmlns:xlink="http://www.w3.org/1999/xlink" version="1.1" preserveAspectRatio="xMidYMid meet" style="cursor: pointer;" viewBox="36.38 368.96 949.08 262.08">
  <defs>
    <g transform="matrix(3.142, 0, 0, 3.142, 36.383, 378.688)" fill="#fff" stroke="none" stroke-width="1" id="def-7c4b97f7-4192-4d7e-96e4-c4c6addc03ee">
      <g transform="translate(-6.921, -11.385)">
        <g/>
        <g>
          <path d=" M49.569,22.967 c-9.975 -5.691 -20.677 -9.125 -31.045 -9.962 v58.351 c10.367,0.814,21.05,4.154,31.045,9.699 V22.967 z"/>
          <path d=" M49.229,84.073 c0.814,0.278,1.671,0.29,2.485,0.012 c11.657 -5.043,23.865 -7.313,35.798 -6.79 V19.524 c-1.074 -0.048 -2.155 -0.059 -3.24 -0.055 v53.594 l-0.852,0.056 c-10.672,0.697 -21.732,4.177 -32.021,10.048 c-0.594,0.203 -1.237,0.203 -1.83,0 c-10.29 -5.871 -21.349 -9.351 -32.021 -10.048 l-0.854 -0.056 V19.469 c-1.084 -0.004 -2.166,0.006 -3.239,0.055 v57.771 C25.387,76.771,37.569,79.03,49.229,84.073 z"/>
          <path d=" M92.579,26.009 c-1.07 -0.149 -2.157 -0.228 -3.237 -0.335 v53.55 l-0.968 -0.056 c-12.195 -0.699 -25.06,1.777 -36.975,7.065 l-0.916,0.381 l-0.915 -0.381 c-11.917 -5.288 -24.781 -7.765 -36.976 -7.065 l-0.967,0.056 v-53.55 c-1.081,0.108 -2.168,0.187 -3.238,0.335 v58.707 c0.594,0.307,1.044,0.748,1.044,0.748 c12.951 -1.75,26.393 -1.536,39.18,2.651 c0.588 -0.058,1.212 -0.095,1.873 -0.095 c0.661,0,1.285,0.037,1.872,0.095 c12.785 -4.188,26.229 -4.401,39.179 -2.651 c0,0,0.474 -0.462,1.044 -0.748 V26.009 z"/>
          <path d=" M65.283,16.667 v20.625 l-3.98 -4.738 l-4.195,4.738 V19.994 c-1.924,0.91 -3.829,1.901 -5.708,2.974 v58.087 c9.993 -5.545,20.679 -8.885,31.045 -9.699 V13.005 C76.766,13.464,70.987,14.706,65.283,16.667 z"/>
        </g>
      </g>
    </g>
    <path d="M380.137,445.018 L388.239,445.018 L388.239,422.414 L396.228,422.414 C407.133,422.414,414.819,416.962,414.819,407.118 C414.819,397.198,407.095,391.519,396.228,391.519 L380.137,391.519 Z M388.239,414.804 L388.239,399.129 L396.228,399.129 C403.347,399.129,406.754,402.045,406.754,407.118 C406.754,412.116,403.46,414.804,396.228,414.804 Z M425.835,445.018 L461.237,445.018 L461.237,437.332 L433.976,437.332 L433.976,421.96 L459.041,421.96 L459.041,414.463 L433.976,414.463 L433.976,399.016 L461.237,399.016 L461.237,391.519 L425.835,391.519 Z M474.903,445.018 L483.044,445.018 L483.044,421.733 L487.814,421.733 C488.912,421.733,490.048,421.695,491.071,421.695 L504.512,445.018 L513.826,445.018 L498.946,420.862 C505.307,418.931,509.699,413.895,509.699,406.967 C509.699,397.122,501.521,391.519,491.411,391.519 L474.903,391.519 Z M483.119,415.069 L483.119,398.826 L491.487,398.826 C497.772,398.826,501.634,402.007,501.634,407.118 C501.634,411.927,498.151,414.88,492.131,415.069 Z M524.388,445.018 L532.49,445.018 L532.49,422.414 L540.479,422.414 C551.384,422.414,559.07,416.962,559.07,407.118 C559.07,397.198,551.346,391.519,540.479,391.519 L524.388,391.519 Z M532.49,414.804 L532.49,399.129 L540.479,399.129 C547.598,399.129,551.005,402.045,551.005,407.118 C551.005,412.116,547.711,414.804,540.479,414.804 Z M589.131,445.738 C602.989,445.738,609.198,437.408,609.198,424.043 L609.198,391.519 L601.058,391.519 L601.058,423.437 C601.058,432.675,598.142,437.862,589.131,437.862 C580.158,437.862,577.28,432.713,577.28,423.512 L577.28,391.519 L569.14,391.519 L569.14,424.421 C569.14,437.446,575.273,445.738,589.131,445.738 Z M639.146,445.586 C649.217,445.586,657.32,439.49,657.32,429.722 C657.32,412.002,630.892,415.751,630.892,404.771 C630.892,400.833,634.224,398.031,638.616,398.031 C642.667,398.031,645.961,400.151,648.043,404.089 L654.783,399.924 C651.224,393.601,645.469,390.799,638.881,390.799 C630.097,390.799,622.751,396.1,622.751,405.187 C622.751,422.377,649.179,418.363,649.179,430.441 C649.179,434.909,645.544,438.355,639.297,438.355 C633.126,438.355,628.204,435.098,627.371,428.17 L619.306,430.214 C620.972,440.399,629.794,445.586,639.146,445.586 Z M680.225,445.018 L688.365,445.018 L688.365,398.826 L705.744,398.826 L705.744,391.519 L662.808,391.519 L662.808,398.826 L680.225,398.826 Z M704.758,445.018 L713.656,445.018 L718.086,432.978 L739.592,432.978 L743.946,445.018 L752.73,445.018 L731.906,391.519 L725.658,391.519 Z M720.623,425.974 L728.839,403.37 L737.017,425.974 Z M762.875,445.018 L771.016,445.018 L771.016,430.782 L782.753,418.628 L800.018,445.018 L810.128,445.018 L788.395,413.176 L809.484,391.519 L798.58,391.519 L771.016,420.824 L771.016,391.519 L762.875,391.519 Z M813.761,445.018 L822.659,445.018 L827.088,432.978 L848.594,432.978 L852.948,445.018 L861.733,445.018 L840.908,391.519 L834.661,391.519 Z M829.625,425.974 L837.841,403.37 L846.02,425.974 Z M865.631,445.018 L874.528,445.018 L878.958,432.978 L900.464,432.978 L904.818,445.018 L913.602,445.018 L892.778,391.519 L886.531,391.519 Z M881.495,425.974 L889.711,403.37 L897.89,425.974 Z M955.818,391.519 L955.818,431.501 L931.926,391.519 L923.748,391.519 L923.748,445.018 L931.586,445.018 L931.586,404.884 L955.401,445.018 L963.617,445.018 L963.617,391.519 Z M404.278,523.866 C421.012,523.866,428.51,513.808,428.51,497.668 L428.51,458.393 L418.68,458.393 L418.68,496.936 C418.68,508.093,415.16,514.356,404.278,514.356 C393.442,514.356,389.967,508.138,389.967,497.028 L389.967,458.393 L380.137,458.393 L380.137,498.125 C380.137,513.853,387.544,523.866,404.278,523.866 Z M485.569,458.393 L485.569,506.675 L456.719,458.393 L446.843,458.393 L446.843,522.998 L456.307,522.998 L456.307,474.533 L485.066,522.998 L494.988,522.998 L494.988,458.393 Z M514.829,522.998 L524.659,522.998 L524.659,458.393 L514.829,458.393 Z M585.101,458.393 L566.492,507.224 L547.792,458.393 L536.911,458.393 L562.698,522.998 L570.196,522.998 L595.891,458.393 Z M608.097,522.998 L650.847,522.998 L650.847,513.716 L617.927,513.716 L617.927,495.153 L648.195,495.153 L648.195,486.1 L617.927,486.1 L617.927,467.446 L650.847,467.446 L650.847,458.393 L608.097,458.393 Z M667.351,522.998 L677.181,522.998 L677.181,494.879 L682.942,494.879 C684.268,494.879,685.639,494.833,686.874,494.833 L703.105,522.998 L714.352,522.998 L696.384,493.827 C704.065,491.496,709.369,485.415,709.369,477.048 C709.369,465.16,699.493,458.393,687.285,458.393 L667.351,458.393 Z M677.272,486.832 L677.272,467.217 L687.377,467.217 C694.966,467.217,699.63,471.058,699.63,477.23 C699.63,483.037,695.424,486.603,688.154,486.832 Z M744.938,523.684 C757.1,523.684,766.885,516.322,766.885,504.526 C766.885,483.129,734.971,487.655,734.971,474.396 C734.971,469.641,738.994,466.257,744.298,466.257 C749.19,466.257,753.168,468.818,755.683,473.573 L763.821,468.543 C759.523,460.908,752.574,457.524,744.618,457.524 C734.011,457.524,725.141,463.925,725.141,474.899 C725.141,495.656,757.054,490.81,757.054,505.395 C757.054,510.79,752.665,514.951,745.121,514.951 C737.669,514.951,731.725,511.019,730.719,502.652 L720.98,505.121 C722.992,517.42,733.645,523.684,744.938,523.684 Z M781.148,522.998 L790.978,522.998 L790.978,458.393 L781.148,458.393 Z M824.49,522.998 L834.32,522.998 L834.32,467.217 L855.306,467.217 L855.306,458.393 L803.458,458.393 L803.458,467.217 L824.49,467.217 Z M854.116,522.998 L864.86,522.998 L870.21,508.458 L896.18,508.458 L901.438,522.998 L912.045,522.998 L886.898,458.393 L879.354,458.393 Z M873.273,500 L883.195,472.704 L893.071,500 Z M941.671,523.684 C953.833,523.684,963.617,516.322,963.617,504.526 C963.617,483.129,931.703,487.655,931.703,474.396 C931.703,469.641,935.727,466.257,941.031,466.257 C945.923,466.257,949.901,468.818,952.415,473.573 L960.554,468.543 C956.256,460.908,949.306,457.524,941.351,457.524 C930.743,457.524,921.873,463.925,921.873,474.899 C921.873,495.656,953.787,490.81,953.787,505.395 C953.787,510.79,949.398,514.951,941.854,514.951 C934.401,514.951,928.457,511.019,927.451,502.652 L917.713,505.121 C919.724,517.42,930.378,523.684,941.671,523.684 Z M380.137,608.235 L406.787,608.235 C419.399,608.235,430.029,600.912,430.029,587.739 C430.029,579.958,424.943,572.329,417.925,569.939 C422.451,567.752,426.52,562.259,426.52,555.444 C426.52,541.56,415.28,536.373,403.989,536.373 L380.137,536.373 Z M391.071,566.176 L391.071,546.239 L404.193,546.239 C411.415,546.239,416.45,549.545,416.45,556.055 C416.45,563.531,411.262,566.176,405.566,566.176 Z M391.071,597.809 L391.071,575.635 L407.193,575.635 C414.67,575.635,419.298,580.365,419.298,586.519 C419.298,594.097,414.873,597.809,406.939,597.809 Z M446.963,608.235 L457.897,608.235 L457.897,577.263 L491.464,577.263 L491.464,608.235 L502.398,608.235 L502.398,536.373 L491.464,536.373 L491.464,567.193 L457.897,567.193 L457.897,536.373 L446.963,536.373 Z M516.026,608.235 L527.978,608.235 L533.928,592.062 L562.816,592.062 L568.664,608.235 L580.463,608.235 L552.491,536.373 L544.1,536.373 Z M537.336,582.654 L548.372,552.291 L559.357,582.654 Z M602.534,608.235 L613.468,608.235 L613.468,546.188 L636.812,546.188 L636.812,536.373 L579.139,536.373 L579.139,546.188 L602.534,546.188 Z M635.488,608.235 L647.44,608.235 L653.39,592.062 L682.277,592.062 L688.126,608.235 L699.925,608.235 L671.953,536.373 L663.562,536.373 Z M656.798,582.654 L667.834,552.291 L678.819,582.654 Z M713.553,608.235 L724.488,608.235 L724.488,576.957 L730.896,576.957 C732.371,576.957,733.897,576.907,735.27,576.907 L753.324,608.235 L765.836,608.235 L745.848,575.788 C754.392,573.194,760.292,566.43,760.292,557.123 C760.292,543.9,749.307,536.373,735.727,536.373 L713.553,536.373 Z M724.589,568.006 L724.589,546.188 L735.829,546.188 C744.272,546.188,749.459,550.46,749.459,557.326 C749.459,563.785,744.78,567.752,736.694,568.006 Z M771.326,608.235 L783.278,608.235 L789.228,592.062 L818.116,592.062 L823.964,608.235 L835.764,608.235 L807.792,536.373 L799.4,536.373 Z M792.636,582.654 L803.672,552.291 L814.657,582.654 Z M866.124,609.202 C883.111,609.202,889.824,597.962,889.824,582.196 L889.824,536.373 L851.121,536.373 L851.121,546.443 L878.889,546.443 L878.889,582.399 C878.889,593.08,876.143,599.03,866.124,599.03 C857.732,599.03,853.664,592.978,853.053,585.095 L842.322,586.315 C843.238,598.979,851.833,609.202,866.124,609.202 Z M899.18,608.235 L911.131,608.235 L917.082,592.062 L945.969,592.062 L951.818,608.235 L963.617,608.235 L935.645,536.373 L927.253,536.373 Z M920.489,582.654 L931.526,552.291 L942.511,582.654 Z" id="def-9069bb95-1225-4426-9d20-6c06042609a6"/>
    <mask id="mask-ff73abc9-04fb-4dc5-9527-986e9260e42e" x="23.279" y="355.854" width="975.283" height="288.292" maskUnits="userSpaceOnUse" stroke-width="0">
      <rect x="36.383" y="368.958" width="949.075" height="262.084" fill="#000"/>
      <use xlink:href="#def-7c4b97f7-4192-4d7e-96e4-c4c6addc03ee" fill="#fff" stroke="#fff"/>
      <use xlink:href="#def-9069bb95-1225-4426-9d20-6c06042609a6" fill="#fff" stroke="#fff"/>
    </mask>
  </defs>
  <g mask="url(#mask-ff73abc9-04fb-4dc5-9527-986e9260e42e)">
    <rect x="36.383" y="368.958" width="949.075" height="262.084" fill="#ff6b43"/>
  </g>
  <g opacity="0">
    <rect fill="none" stroke="#fff" stroke-dasharray="11.009" stroke-dashoffset="0" stroke-width="1.835"/>
    <rect fill="none" stroke="#000" stroke-dasharray="11.009" stroke-dashoffset="11.009" stroke-width="1.835"/>
  </g>
  <g opacity="0">
    <rect fill="none" stroke="#fff" stroke-dasharray="5.505" stroke-dashoffset="0" stroke-width="1.835"/>
    <rect fill="none" stroke="#000" stroke-dasharray="5.505" stroke-dashoffset="5.505" stroke-width="1.835"/>
  </g>
</svg>